<?xml version="1.0" standalone="no"?>
<!DOCTYPE svg PUBLIC "-//W3C//DTD SVG 1.1//EN" "http://www.w3.org/Graphics/SVG/1.1/DTD/svg11.dtd" >
<svg xmlns="http://www.w3.org/2000/svg">
<metadata>
Created by FontForge 20120731 at Tue Nov 10 16:46:33 2015
 By Ads
</metadata>
<defs>
<font id="iconfont" horiz-adv-x="1024" >
  <font-face 
    font-family="iconfont"
    font-weight="500"
    font-stretch="normal"
    units-per-em="1024"
    panose-1="2 0 6 3 0 0 0 0 0 0"
    ascent="812"
    descent="-212"
    x-height="792"
    bbox="34 -164 961.75 792"
    underline-thickness="50"
    underline-position="-100"
    unicode-range="U+0078-E63F"
  />
<missing-glyph horiz-adv-x="374" 
d="M34 0v682h272v-682h-272zM68 34h204v614h-204v-614z" />
    <glyph glyph-name=".notdef" horiz-adv-x="374" 
d="M34 0v682h272v-682h-272zM68 34h204v614h-204v-614z" />
    <glyph glyph-name=".null" horiz-adv-x="0" 
 />
    <glyph glyph-name="nonmarkingreturn" horiz-adv-x="341" 
 />
    <glyph glyph-name="x" unicode="x" horiz-adv-x="1001" 
d="M281 543q-27 -1 -53 -1h-83q-18 0 -36.5 -6t-32.5 -18.5t-23 -32t-9 -45.5v-76h912v41q0 16 -0.5 30t-0.5 18q0 13 -5 29t-17 29.5t-31.5 22.5t-49.5 9h-133v-97h-438v97zM955 310v-52q0 -23 0.5 -52t0.5 -58t-10.5 -47.5t-26 -30t-33 -16t-31.5 -4.5q-14 -1 -29.5 -0.5
t-29.5 0.5h-32l-45 128h-439l-44 -128h-29h-34q-20 0 -45 1q-25 0 -41 9.5t-25.5 23t-13.5 29.5t-4 30v167h911zM163 247q-12 0 -21 -8.5t-9 -21.5t9 -21.5t21 -8.5q13 0 22 8.5t9 21.5t-9 21.5t-22 8.5zM316 123q-8 -26 -14 -48q-5 -19 -10.5 -37t-7.5 -25t-3 -15t1 -14.5
t9.5 -10.5t21.5 -4h37h67h81h80h64h36q23 0 34 12t2 38q-5 13 -9.5 30.5t-9.5 34.5q-5 19 -11 39h-368zM336 498v228q0 11 2.5 23t10 21.5t20.5 15.5t34 6h188q31 0 51.5 -14.5t20.5 -52.5v-227h-327z" />
    <glyph glyph-name="uniE600" unicode="&#xe600;" 
d="M704 747v-32l80 -80l-195 -194q-79 51 -173 51q-87 0 -160.5 -43t-116 -116.5t-42.5 -160.5t42.5 -160.5t116 -116.5t160.5 -43t160.5 43t116.5 116.5t43 160.5q0 43 -11.5 84.5t-32.5 77t-50 64.5l190 190l64 -64h32v223h-224zM672 172q0 -106 -75 -181t-181 -75
t-180.5 75t-74.5 181t74.5 181t180.5 75q70 0 129 -34.5t93 -93.5t34 -128z" />
    <glyph glyph-name="uniE601" unicode="&#xe601;" 
d="M800 460q0 119 -84 203.5t-203.5 84.5t-204 -84.5t-84.5 -203.5q0 -111 73.5 -192.5t182.5 -93.5v-98h-144q-7 0 -11.5 -5t-4.5 -11v-32q0 -7 4.5 -11.5t11.5 -4.5h144v-144q0 -7 4.5 -11.5t11.5 -4.5h32q7 0 11.5 4.5t4.5 11.5v144h112q7 0 11.5 4.5t4.5 11.5v32
q0 3 -1 6t-3.5 5t-5.5 3.5t-6 1.5h-112v98q53 6 100.5 30.5t82 62.5t54 88t19.5 105zM288 460q0 93 65.5 158.5t158.5 65.5q61 0 112.5 -30t81.5 -81.5t30 -112.5q0 -93 -65.5 -158.5t-158.5 -65.5q-61 0 -112.5 30t-81.5 81.5t-30 112.5z" />
    <glyph glyph-name="uniE602" unicode="&#xe602;" 
d="M676 747h-325q-34 0 -58 -24t-24 -58v-731q0 -22 11 -41t30 -29.5t41 -10.5h325q33 0 57 23.5t24 57.5v731q0 47 -40 71q-20 10 -41 11zM716 -66q0 -17 -11.5 -29t-28.5 -12h-325q-7 0 -13 2t-11 6t-9 9t-6 11t-2 13v81h406v-81zM716 56h-406v508h406v-508zM716 604h-406
v61q0 11 5.5 20.5t15 15t20.5 5.5h325q11 0 20 -5.5t14.5 -15t5.5 -20.5v-61zM513.5 -66q8.5 0 14 6t5.5 14.5t-5.5 14.5t-14.5 6q-4 0 -7.5 -2t-6.5 -4.5t-4.5 -6.5t-1.5 -8q0 -8 6 -14t14.5 -6z" />
    <glyph glyph-name="uniE603" unicode="&#xe603;" 
d="M863 619q-102 47 -207.5 88t-142.5 41q-26 0 -93.5 -23.5t-132 -50.5t-125.5 -55q-11 -5 -19 -14t-12.5 -20t-4.5 -23q4 -192 59 -331q28 -70 67 -132.5t75.5 -104t73.5 -73.5t63.5 -47.5t42.5 -19.5q3 -1 5.5 -1t5.5 1q23 6 61 33.5t84.5 72.5t94.5 117t81 154
q55 138 59 331q0 11 -4.5 22.5t-13 21t-17.5 13.5zM799 247q-30 -76 -74 -143t-86 -108.5t-74.5 -66t-52.5 -32.5q-15 6 -38 21t-56.5 45t-65.5 68t-66.5 95t-60.5 121q-52 132 -56 316q0 12 11 17q116 54 211.5 90t121.5 36t121 -36t211 -89q3 -2 6.5 -8t3.5 -10
q-1 -78 -14 -160.5t-42 -155.5zM522 464h-20q-10 0 -10 -11v-223q0 -11 10 -11h20q11 0 11 11v223q0 11 -11 11zM512.5 179q-8.5 0 -14.5 -6t-6 -14.5t6 -14.5t14.5 -6t14.5 6t6 14.5t-6 14.5t-14.5 6z" />
    <glyph glyph-name="uniE604" unicode="&#xe604;" 
d="M897 538v-20l-379 -375l-389 384v11h-64v-63h27l392 -388l23 -22q11 -11 22 0l415 410h17v63h-64z" />
    <glyph glyph-name="uniE605" unicode="&#xe605;" 
d="M908 356h-341v341q0 14 -6.5 25.5t-18.5 18.5t-25 7h-11q-21 0 -36 -15t-15 -36v-341h-341q-21 0 -36 -15t-15 -36v-11q0 -21 15 -35.5t36 -14.5h341v-341q0 -21 15 -36t36 -15h11q8 0 15.5 2.5t14 7.5t11 11t7 13.5t2.5 16.5v341h341q14 0 25.5 6.5t18.5 18.5t7 25v11
q0 21 -15 36t-36 15z" />
    <glyph glyph-name="uniE606" unicode="&#xe606;" 
d="M512 748q-73 0 -141.5 -22.5t-123.5 -64t-96.5 -96.5t-64 -123.5t-22.5 -141.5q0 -91 35.5 -174t95.5 -143t143 -95.5t174 -35.5t174 35.5t143 95.5t95.5 143t35.5 174q0 73 -22.5 141.5t-64 123.5t-96.5 96.5t-123.5 64t-141.5 22.5zM684 181q3 -4 4.5 -8.5t0 -9.5
t-4.5 -8l-27 -27q-5 -5 -12.5 -5t-13.5 5l-119 119l-119 -119q-5 -5 -13 -5t-13 5l-27 27q-3 3 -4.5 8t0 9.5t4.5 8.5l119 119l-119 119q-5 5 -5 13t5 13l27 27q5 5 13 5t13 -5l119 -119l119 119q4 3 8.5 4.5t9.5 0t8 -4.5l27 -27q5 -5 5 -13t-5 -13l-119 -119z" />
    <glyph glyph-name="uniE607" unicode="&#xe607;" 
d="M943 123l-415 411q-11 11 -22 0l-23 -23l-392 -388h-27v-63h64v11l389 384l379 -374v-21h64v63h-17z" />
    <glyph glyph-name="uniE608" unicode="&#xe608;" 
d="M747 316l-22 22l-388 393v17h-63v-64h20l375 -379l-384 -389h-11v-64h63v26l410 415q5 5 5 11.5t-5 11.5z" />
    <glyph glyph-name="uniE609" unicode="&#xe609;" 
d="M761 330q40 0 76.5 16t63 42.5t42 63t15.5 76.5q0 82 -57.5 139.5t-139.5 57.5q-54 0 -99.5 -26t-71.5 -71.5t-26 -99.5q0 -82 57.5 -140t139.5 -58zM761 684q65 0 110.5 -46t45.5 -110.5t-45.5 -110t-110.5 -45.5t-110.5 45.5t-45.5 110t45.5 110.5t110.5 46zM397 268
h-270q-26 0 -44 -18t-18 -44v-270q0 -26 18 -44.5t44 -18.5h270q26 0 44.5 18.5t18.5 44.5v270q0 26 -18.5 44t-44.5 18zM418 -64q0 -6 -2.5 -11t-7.5 -7.5t-11 -2.5h-270q-8 0 -14.5 6t-6.5 15v270q0 8 6.5 14.5t14.5 6.5h270q9 0 15 -6.5t6 -14.5v-270zM397 725h-270
q-8 0 -16 -2t-15 -6t-13 -10t-10 -12.5t-6 -15t-2 -16.5v-270q0 -26 18 -44.5t44 -18.5h270q26 0 44.5 18.5t18.5 44.5v270q0 26 -18.5 44t-44.5 18zM418 393q0 -9 -6 -15t-15 -6h-270q-8 0 -14.5 6t-6.5 15v270q0 4 2 8t4.5 6.5t6.5 4.5t8 2h270q6 0 11 -3t7.5 -7.5
t2.5 -10.5v-270zM896 268h-270q-26 0 -44 -18t-18 -44v-270q0 -17 8 -31.5t22.5 -23t31.5 -8.5h270q26 0 44 18.5t18 44.5v270q0 26 -18 44t-44 18zM917 -64q0 -6 -3 -11t-7.5 -7.5t-10.5 -2.5h-270q-9 0 -15 6t-6 15v270q0 8 6 14.5t15 6.5h270q9 0 15 -6.5t6 -14.5v-270z
" />
    <glyph glyph-name="uniE60A" unicode="&#xe60a;" 
d="M959 266q0 -28 -5.5 -52.5t-21 -46.5t-39.5 -32q2 -4 5 -11.5t4 -11.5t3.5 -11t4 -11t3 -10.5t2 -11.5t1.5 -11t1 -13q0 -39 -13.5 -69.5t-40 -51.5t-60 -35t-81.5 -21.5t-97.5 -10.5t-112.5 -3q-76 0 -133 4.5t-110.5 16.5t-87 33t-53.5 55.5t-20 81.5t22 87
q-33 19 -49 55t-16 80q0 46 16 86.5t52.5 76.5t91.5 60q-32 62 -32 109q0 60 52 104.5t139 44.5q70 0 128 -64q25 27 57 45.5t71 18.5q44 0 81 -13t61 -34t36.5 -47.5t12.5 -54.5q0 -19 -3.5 -36.5t-10 -34t-18.5 -38.5q34 -15 60.5 -34t45 -40.5t31 -46t18 -50t5.5 -52.5v0
zM512 -104q73 0 134.5 7t114.5 23.5t83 46.5t30 71q-3 77 -85 165t-175 111q68 76 68 150q0 66 -52 107.5t-118 41.5q-67 0 -129 -45.5t-62 -103.5q0 -30 15.5 -68t53.5 -82q-61 -36 -102.5 -66.5t-74 -64t-48 -69.5t-15.5 -76q0 -148 362 -148v0zM108 262q0 -11 7 -29
t17 -34.5t18 -26.5q18 30 42.5 59t58.5 58t70 49q-49 65 -49 127q-26 -12 -48.5 -26t-40.5 -30t-32 -33.5t-23.5 -36t-14.5 -38t-5 -39.5v0zM236 576q0 -8 1.5 -16t6.5 -18l8 -15q2 -5 10.5 -17.5t9.5 -15.5q4 25 20.5 52.5t42.5 51t61.5 41.5t73.5 23q-2 4 -6 9t-9.5 9
t-12.5 8t-14.5 7t-15 5t-15 3t-12.5 1q-22 0 -41 -3.5t-34 -10t-27.5 -15.5t-21 -20t-14.5 -23.5t-8.5 -26.5t-2.5 -29v0zM736 474q49 46 53 102q2 36 -11 62.5t-37 40t-49 19.5t-52 6q-5 0 -10 -1l-8 -2q-5 -1 -10.5 -3.5t-9 -4t-9.5 -5t-9 -5.5t-8.5 -6t-7.5 -5.5t-7 -5.5
t-6 -4q77 -18 123.5 -73t46.5 -119q0 -77 -43 -128q57 -25 109 -73.5t83 -96.5q15 15 29 42t14 43q-1 44 -14 77.5t-40 59t-55.5 43t-71.5 37.5v0zM573 300l-61 -285l-61 285l61 -64l61 64v0zM573 300z" />
    <glyph glyph-name="uniE60B" unicode="&#xe60b;" 
d="M940 451l-66 180v1q-13 31 -31.5 51.5t-31.5 26.5t-22 6h-4h-549q-25 0 -49 -23q-25 -22 -38 -58q-75 -189 -84 -244q-1 -3 0 -7v-5v-10q0 -43 23 -76t62 -47v-256q0 -27 13.5 -51.5t36.5 -40t48 -15.5h530q39 0 68.5 33t29.5 74v256q38 14 61 47t23 76q0 1 -0.5 2.5
t-0.5 2.5q1 8 0.5 16.5t-3 18t-6.5 20t-10 22.5zM769 -75h-512q-21 0 -42.5 20t-21.5 45v256q25 1 41 2.5t34.5 8.5t28.5 19q7 7 12 16l8 -10q18 -21 40 -28.5t49 -7.5h22q6 0 18.5 1t19.5 2.5t15.5 5.5t15.5 9q8 7 15 15q2 -3 4.5 -5.5t5 -4.5t5.5 -5q11 -8 28 -12.5
t28.5 -5t36.5 -0.5q57 0 85 28q6 6 11 13q4 -6 9 -12q10 -12 29 -18.5t36 -8t43 -2.5v-278q0 -12 -10.5 -22t-25.5 -15.5t-28 -5.5zM940 374q-21 2 -21 0q0 -13 -5 -26t-14 -24t-20.5 -19.5t-25 -13t-25.5 -4.5q-46 0 -66 23q-19 20 -16 51q0 4 -0.5 8t-2.5 7.5t-5 6
t-6.5 4.5t-7.5 2q-7 1 -13.5 -1.5t-10.5 -8t-5 -12.5q-4 -31 -26.5 -55.5t-51.5 -24.5q-21 0 -38.5 6t-29.5 21.5t-12 38.5q0 7 -3.5 12.5t-9.5 9t-13 3.5q-11 0 -18 -7.5t-7 -17.5q0 -34 -23.5 -50t-56.5 -16q-27 0 -51 29q-25 29 -29 64q-2 11 -10 17.5t-18.5 5t-17 -10
t-5.5 -19.5q0 -1 0.5 -4t0 -11t-2 -15.5t-5.5 -16.5t-10 -16q-20 -23 -63 -23q-34 0 -61.5 27t-27.5 60v0v21q3 15 14 41.5t32.5 77t39.5 95.5q6 16 15.5 31.5t17 24t9.5 8.5h556q6 -3 19 -21t23 -43l65 -171q24 -49 21 -64h21zM919 374z" />
    <glyph glyph-name="uniE60C" unicode="&#xe60c;" 
d="M960 620q0 11 -4 25l-4 11q-10 26 -34 42t-53 16h-706q-26 0 -49 -14l-3 -2q-42 -28 -42 -78v-642q0 -39 27.5 -67t66.5 -28h706q39 0 67 28t28 67v261v381zM864 682l-352 -223l-351 223h703zM928 -21q0 -10 -6.5 -21.5t-15.5 -20.5t-20.5 -15.5t-21.5 -6.5h-703
q-10 0 -21.5 6.5t-21 15.5t-15.5 20.5t-6 21.5v639q0 7 1.5 15.5t9.5 19.5t21 13l383 -249l384 249q15 1 23.5 -19t8.5 -29v-639zM640 203q3 0 6 1h4q3 1 4.5 2.5t3 3.5t2 4t0.5 5q0 16 -20 16h-96l96 96q1 0 2 2q18 18 10 25q-3 3 -6.5 4.5t-7.5 1.5t-8 -1.5t-7 -4.5
l-111 -111l-110 111q-4 4 -9.5 5.5t-11 0t-9.5 -5.5q-7 -7 10 -25l2 -2l96 -96h-96q-20 0 -20 -16q0 -8 5.5 -12t14.5 -4h112v-64h-112q-7 0 -10.5 -0.5t-6.5 -3.5t-3 -8q0 -9 6 -14.5t14 -5.5h112v-96q0 -7 2 -8.5t8 -0.5h4h5q6 -1 8 -0.5t3.5 2.5t1.5 7v96h112
q9 0 14.5 5.5t5.5 14.5q0 8 -4.5 10t-15.5 2h-112v64h112z" />
    <glyph glyph-name="uniE60D" unicode="&#xe60d;" 
d="M879 -116h-733q-34 0 -57.5 23.5t-23.5 57.5v161q0 20 12 37t32 23q9 3 17.5 7t16 9.5t14 12t12.5 13.5q23 31 23 71q0 7 -1 14.5t-3 15t-4.5 14.5t-6.5 13.5t-8 12.5q-12 15 -27 26t-33 17q-20 6 -32 22.5t-12 37.5v161q0 34 23.5 57.5t57.5 23.5h733q33 0 56.5 -23.5
t23.5 -57.5v-161q0 -10 -3 -20t-9 -17.5t-14 -13.5t-18 -9q-36 -12 -59 -43q-12 -15 -18 -33t-6 -37q0 -39 24 -71q23 -31 59 -42q13 -4 23 -13t15.5 -21.5t5.5 -25.5v-161q0 -22 -10.5 -41t-29 -29.5t-40.5 -10.5zM145 682q-10 0 -21.5 -7.5t-19 -18.5t-7.5 -22v-160
q0 -6 12 -16.5t20 -14.5q3 -2 9.5 -5.5t8.5 -4.5l7 -3q5 -3 6.5 -4t5.5 -3.5t5.5 -4.5t5 -4.5t5.5 -5t5 -6t6 -7.5q32 -43 32 -96t-32 -96q-22 -30 -80 -48q-6 -2 -11 -13t-5 -19v-160q0 -15 16 -31t32 -16h734q16 0 32 15.5t16 31.5v160q0 4 -1 9t-3.5 9.5t-5.5 8.5t-6 5
q-57 18 -79 48q-32 43 -32 96t32 96q22 30 79 48q4 1 8 7t6 13t2 11v160q0 16 -16 32t-32 16h-734v0zM672 219h-144v96h144q4 0 7.5 1t6.5 2.5t4.5 5t1.5 7.5q0 16 -20 16h-128l128 127q0 1 2 2l8 9q2 3 4.5 9t-2.5 8q-6 6 -14.5 6t-15.5 -6l-142 -143l-142 143
q-6 6 -14.5 6t-15.5 -6q-6 -9 13 -28l127 -127h-127q-20 0 -20 -16t20 -16h143v-96h-143q-7 0 -11 -0.5t-6.5 -3.5t-2.5 -8q0 -9 5.5 -14.5t14.5 -5.5h143v-128q9 -9 15 -9h4h8q2 0 3.5 2.5t1.5 6.5v128h144q6 0 10.5 2.5t7 7t2.5 10.5q0 5 -3 8t-6.5 3.5t-10.5 0.5z
M672 219z" />
    <glyph glyph-name="uniE60E" unicode="&#xe60e;" 
d="M512 341q126 0 228.5 25.5t161 70t58.5 98t-58.5 97.5t-161 68.5t-228.5 24.5t-228.5 -24.5t-161 -68.5t-58.5 -97.5t58.5 -98t161.5 -70t228 -25.5v3v-3zM512 693q85 0 164 -15t133 -38.5t86.5 -51.5t32.5 -53.5t-32.5 -53.5t-86.5 -52t-133 -40t-163.5 -16t-163.5 16
t-133 40t-86.5 52t-32.5 53.5t32.5 53.5t86.5 51.5t133 38.5t163 15v0zM512 101q125 0 228 27t161 72.5t58 99.5q0 14 -4.5 27.5t-13 26t-21.5 24.5v1v0v1l-1 -1q-2 2 -4 3.5t-5 2t-5 0.5q-12 0 -23 -18q-3 -5 -2 -5t3 1q4 3 11 -3q1 -2 2 -3q7 -7 14.5 -17.5t13 -21.5
t5.5 -18q0 -21 -20.5 -44t-59 -44.5t-88.5 -39t-115.5 -28.5t-133.5 -11q-84 0 -163.5 16.5t-133.5 41.5t-86.5 54t-32.5 55q0 27 23 48h1v0v1q1 1 4.5 3t3.5 5t0.5 6.5t0.5 6.5t-0.5 6t-1 5t-2.5 3t-5 1q-9 0 -16 -6q-19 -18 -28.5 -38t-9.5 -41q0 -54 57.5 -99.5
t161 -72.5t227.5 -27v0zM920 146v1q-7 5 -15 5q-9 0 -15.5 -6t-6.5 -15q0 -5 8 -10q4 -2 5 -4q33 -32 33 -50q0 -20 -20.5 -42.5t-59 -42.5t-88.5 -36.5t-115 -26t-134 -9.5q-85 0 -164 15t-133 38t-86.5 50.5t-32.5 53.5q0 22 32 50v0l8 -1q6 6 6 15t-6.5 15t-15.5 6
q-4 0 -8 -1.5t-7 -4.5q-41 -39 -41 -76q0 -54 58.5 -98t161.5 -69t228.5 -25t228 25t161 69t58.5 98q0 37 -39 76h-1v0zM920 146z" />
    <glyph glyph-name="uniE60F" unicode="&#xe60f;" 
d="M225 428h431v31h-431v-31zM225 140h103q-1 8 0 16t3 16h-106v-32zM783 555v-166q3 0 5 -1h4l4 -2h4h4l4 -2q2 0 3.5 -0.5t3.5 -1.5v176q0 17 -4.5 33.5t-12.5 30t-19.5 25.5t-25 20t-30 12.5t-33.5 4.5l-34 -1v-32h32q13 0 27.5 -5.5t26.5 -15t21.5 -21.5t14.5 -26t5 -28
zM371 316h-146v-32h132q3 9 6.5 17t7.5 15zM560 747h-240v-32h240v32zM209 -83q-28 0 -54 15.5t-42 41.5t-16 54v527q0 36 30 66t66 30h32v32l-35 1q-52 0 -88.5 -37t-36.5 -89v-526q0 -61 43 -104t103 -43h165q-12 15 -20 32h-147zM432 699v-32h-96v-32h208v32h-80v32h-32z
M384 220q0 -34 38 -59.5t103 -39t147 -13.5q125 0 206 30.5t81 81.5q0 52 -83 90t-204.5 38t-204.5 -38t-83 -90zM927 220q0 -33 -72.5 -56.5t-183 -23.5t-183 23.5t-72.5 56.5q0 16 19 33t51.5 31t81.5 23t104 9q107 0 181 -31t74 -65zM934 22h-1v1q-2 1 -4.5 2t-4.5 1
q-6 0 -10.5 -4t-4.5 -9q0 -2 1 -4t2 -3.5t2 -3.5q4 -4 7.5 -11.5t4.5 -14t1 -11.5q0 -33 -72 -56.5t-183.5 -23.5t-183.5 23.5t-72 56.5q0 26 14 38v0v0q4 4 4 10q0 3 -2 6.5t-5 5t-7 1.5q-6 0 -10 -4q-13 -7 -19.5 -24t-6.5 -33q0 -51 81.5 -81.5t206.5 -30.5t206.5 30.5
t80.5 81.5q-1 44 -25 57zM927 156l1 -1l3 -3l2 -2q-4 3 -10 3q-5 0 -9.5 -4t-4.5 -10q1 -6 5 -10q13 -13 13 -37q0 -33 -72 -56.5t-183.5 -23.5t-183.5 23.5t-72 56.5q0 26 14 37v1v0q2 2 3 4.5t1 4.5q0 6 -4 10t-10 4t-10 -4q-26 -13 -26 -57q0 -50 81.5 -80.5t206 -30.5
t206 30.5t81.5 80.5q0 16 -8 35t-24 29zM933 149z" />
    <glyph glyph-name="uniE610" unicode="&#xe610;" 
d="M225 172v-32h107q-1 17 2 32h-109zM656 460h-431v-32h431v32zM784 556v-175q8 0 16 -0.5t16 -0.5v178q0 21 -6.5 40.5t-18 35t-26.5 27t-34.5 18t-39.5 6.5l-35 -1v-32h32q23 0 45.5 -14t36.5 -36.5t14 -45.5zM374 316h-149v-32h142v4q0 3 1 5v4l2 4v4l2 4q0 2 0.5 3.5
t1.5 3.5zM209 -83q-44 0 -78 34t-34 77v528q0 35 30 65.5t66 30.5h32v32l-35 1q-15 0 -29 -3.5t-26.5 -9.5t-23.5 -15t-19.5 -19.5t-14.5 -23t-9 -27t-3 -29.5v-526q0 -61 42.5 -104t103.5 -43h211q-5 16 -7 32h-206zM560 748h-240v-32h240v32zM432 700v-32h-96v-32h208v32
h-80v32h-32zM947 191l-40 106l-1 1q-11 27 -26 38.5t-25 11.5h-2h-332q-4 0 -8 -1t-7.5 -2.5t-7.5 -4t-8 -6.5q-7 -6 -13 -15t-10 -19q-22 -56 -35 -92.5t-15 -52.5q-1 -2 -1 -4l1 -3q-1 -4 -1 -6q0 -18 5.5 -34.5t16.5 -29t26 -18.5v-143q0 -24 20 -44t44 -20h320
q24 0 44 20t20 44v143q22 8 34 31.5t12 50.5v2v1q1 9 -1.5 20t-9.5 26zM880 -83q0 -12 -10.5 -22t-21.5 -10h-320q-3 0 -6.5 1t-6.5 2.5t-6 4t-5 5.5l-4 6q-2 3 -3 6t-1 7v143q40 2 61 26q2 3 4 5.5t4 4.5q1 -1 2 -2.5t2 -3.5q24 -28 55 -28q33 0 54 18q5 4 9 8q4 -4 10 -8
q21 -18 54 -18q30 0 53 24q4 3 7 7q2 -4 5 -7q22 -25 64 -26v-143zM928 142v-1q-1 -20 -15 -34t-34 -14q-27 0 -40 13q-11 13 -9 31q0 6 -3.5 11t-10 6t-11.5 -3t-6 -11q-2 -18 -16 -32.5t-32 -14.5q-20 0 -34 9.5t-14 29.5q0 4 -2 7.5t-5.5 5.5t-8.5 2q-6 0 -10.5 -4.5
t-4.5 -10.5q0 -14 -7.5 -23t-18 -12.5t-22.5 -3.5q-17 0 -31 17q-15 18 -18 38q-1 7 -6 10.5t-11 3.5q-3 -1 -6 -2.5t-4.5 -4t-2.5 -5t0 -6.5q3 -22 -11 -37q-6 -7 -15.5 -10.5t-22.5 -3.5q-10 0 -19 4t-15.5 10.5t-10.5 15.5t-4 19v1q1 2 1 3v2v1l-1 3q7 31 49 137
q4 9 11.5 16t13 9t7.5 2h320q22 -10 30 -30l40 -107q0 -1 1 -1q5 -12 7 -19t1 -11v-4q0 -1 1 -2z" />
    <glyph glyph-name="uniE611" unicode="&#xe611;" 
d="M758 321l-414 420v23h-84v-85h27l368 -373l-380 -386h-15v-84h84v35l414 420q6 6 6 15t-6 15z" />
    <glyph glyph-name="uniE612" unicode="&#xe612;" 
d="M880 641h-736q-33 0 -56 -23.5t-23 -55.5v-526q0 -33 23 -56t56 -23h736q33 0 56 23t23 56v526q0 32 -23 55.5t-56 23.5zM144 588h736q11 0 19 -7.5t8 -18.5v-144l-369 -171l-420 173v142q0 11 7.5 18.5t18.5 7.5zM880 10h-736q-11 0 -18.5 7.5t-7.5 18.5v330l394 -172
q36 1 53 0q15 0 342 170v-328q0 -11 -8 -18.5t-19 -7.5z" />
    <glyph glyph-name="uniE613" unicode="&#xe613;" 
d="M770 234q-36 0 -69 13.5t-60 38.5q-54 -52 -129 -52t-129 52q-54 -52 -129 -52q-78 0 -133.5 56t-55.5 135q0 19 4 38l3 15q10 32 29 59l61 123q3 36 29.5 61t62.5 25h516q18 0 34.5 -6.5t28.5 -18t20 -27.5t9 -34l61 -123q20 -27 29 -58l3 -14q4 -21 4 -40
q0 -79 -55.5 -135t-133.5 -56zM901 452l-3 12q-2 7 -5 14.5t-7 14.5t-9 13l-3 4l-67 136v7q0 15 -11 26t-26 11h-516q-10 0 -18.5 -5t-13 -13.5t-4.5 -18.5v-7l-70 -140q-15 -20 -22 -43l-3 -12q-2 -12 -2 -26q0 -55 39 -95t94 -40q32 0 59.5 14.5t47.5 40.5l22 30l22 -30
q41 -55 107 -55q13 0 25 2.5t23.5 7t22 11t19.5 15t17 19.5l22 30l23 -30q40 -55 106 -55q55 0 94 40t39 95q0 7 -0.5 14t-1.5 13zM753 440h-481q-14 0 -24.5 10t-10.5 24t10.5 24.5t24.5 10.5h481q9 0 17 -5t12.5 -13t4.5 -17q0 -14 -10 -24t-24 -10zM222 -55
q0 -16 10.5 -26.5t26.5 -10.5h479q15 0 25.5 10.5t10.5 26.5v229h56v-229q0 -25 -12 -46.5t-33.5 -34t-46.5 -12.5h-479q-39 0 -66 27t-27 66v229h56v-229zM222 -55z" />
    <glyph glyph-name="uniE614" unicode="&#xe614;" 
d="M950 -96l-395 399l387 390h17v53h-52v-14l-393 -397l-396 397v14h-53v-53h17l391 -390l-399 -399h-9v-52h53v21l396 397l393 -397v-21h52v52h-9z" />
    <glyph glyph-name="uniE615" unicode="&#xe615;" 
d="M657 747h-289q-44 0 -74.5 -31t-30.5 -74v-684q0 -29 14 -53t38 -38t53 -14h289q22 0 41.5 8t33.5 22t22.5 33.5t8.5 41.5v684q0 43 -31 74t-75 31zM710 -42q0 -22 -15.5 -37.5t-37.5 -15.5h-289q-11 0 -20.5 4.5t-16.5 11.5t-11.5 16.5t-4.5 20.5v52h395v-52zM710 63
h-395v500h395v-500zM710 616h-395v26q0 22 15.5 37t37.5 15h289q22 0 37.5 -15t15.5 -37v-26zM526 -68q11 0 18.5 7.5t7.5 18.5q0 5 -2 10t-5.5 8.5t-8.5 5.5t-10 2q-11 0 -18.5 -7.5t-7.5 -18.5t7.5 -18.5t18.5 -7.5z" />
    <glyph glyph-name="uniE616" unicode="&#xe616;" 
d="M957 602l-19 19q-9 9 -19 0l-525 -576l-288 288q-9 9 -19 0l-18 -19q-4 -3 -4 -8.5t4 -9.5l317 -317q2 -2 4.5 -3t5 -1t5 1t4.5 3l18 18q3 3 3 6l531 580q9 10 0 19z" />
    <glyph glyph-name="uniE617" unicode="&#xe617;" 
d="M921 90q-10 0 -18 -8t-8 -18v-106q0 -14 -7 -26.5t-19 -19.5t-27 -7h-659q-22 0 -37.5 15.5t-15.5 37.5v106q0 10 -7.5 18t-18.5 8q-5 0 -10 -2t-8.5 -5.5t-5.5 -8.5t-2 -10v-106q0 -44 30.5 -74.5t74.5 -30.5h659q44 0 75 30.5t31 74.5v106q0 7 -3.5 13t-9.5 9.5
t-14 3.5zM175 361l298 298v-569q0 -7 3.5 -13t9.5 -9.5t14 -3.5q10 0 18 7.5t8 18.5v633q0 4 -1 7.5t-3.5 7t-5.5 6t-6 3.5q-5 2 -10.5 2t-10 -2t-8.5 -6l-343 -342q-8 -8 -8 -19t8 -18.5t19 -7.5t18 7zM850 335q8 -8 19 -8t18 8q5 5 7 12t0 13.5t-7 11.5l-211 211
q-7 8 -18 8q-5 0 -10 -2t-9 -6q-8 -7 -8 -18t8 -19z" />
    <glyph glyph-name="uniE618" unicode="&#xe618;" 
d="M262 10h184q18 0 33 9t24 24t9 33q0 47 -47 87q20 38 20 84q0 65 -38.5 111.5t-93 46.5t-93 -46.5t-38.5 -111.5q0 -46 21 -85q-47 -51 -47 -86q0 -40 35 -58q15 -8 31 -8zM354 352q33 0 56 -31t23 -74q0 -28 -10.5 -52t-28 -38.5t-38.5 -14.5h-11q-30 5 -50 35t-20 70
q0 43 23 74t56 31zM301 115q26 -26 54 -26q16 0 35.5 6.5t30.5 13.5l12 6q3 0 9.5 -8t11.5 -17.5t5 -13.5t-1.5 -7t-4.5 -4.5t-7 -1.5h-184q-6 0 -9.5 3.5t-3.5 9.5q0 12 14 30t38 9zM354 483q0 -11 7.5 -18.5t18.5 -7.5h263q11 0 18.5 7.5t7.5 18.5q0 4 -1 7.5t-2.5 6.5
t-4 5t-5.5 4t-6 3t-7 1h-26v105q0 37 -11 66t-35 47t-59 18q-52 0 -79 -36.5t-27 -94.5v-105h-26q-11 0 -18.5 -8t-7.5 -19zM459 615q0 37 11 58t41.5 21t41.5 -21t11 -58v-105h-105v105zM853 589h-210v-53h210q22 0 37.5 -15.5t15.5 -37.5v-525q0 -11 -4 -21t-11 -17
t-17 -11t-21 -4h-683q-9 0 -17 2.5t-14.5 7.5t-11 11.5t-7.5 14.5t-3 17v525q0 22 15.5 37.5t37.5 15.5h210v53h-210q-21 0 -40.5 -8.5t-34 -22.5t-22.5 -33.5t-8 -41.5v-525q0 -22 8 -41.5t22.5 -33.5t34 -22.5t40.5 -8.5h683q44 0 75 31t31 75v525q0 44 -31 75t-75 31z
M512 641q-11 0 -19 -7.5t-8 -18.5q0 -6 2.5 -10.5t6 -8t8 -5.5t10.5 -2q11 0 18.5 7.5t7.5 18.5t-7.5 18.5t-18.5 7.5zM775 352h-184q-11 0 -19 -7.5t-8 -18.5q0 -4 1 -7.5t2.5 -6.5t4 -5t5.5 -4t6.5 -3t7.5 -1h184q5 0 10 2.5t8.5 6t5.5 8t2 10.5q0 11 -8 18.5t-18 7.5z
M801 194q0 6 -2 10.5t-5.5 8t-8.5 5.5t-10 2h-184q-6 0 -11 -2t-8.5 -5.5t-5.5 -8t-2 -10.5q0 -11 8 -18.5t19 -7.5h184q10 0 18 7.5t8 18.5zM591 89q-3 0 -5.5 -0.5t-5 -1.5t-4.5 -3l-4 -2q-2 -2 -3.5 -4.5t-2.5 -4.5t-1.5 -5t-0.5 -5q0 -11 8 -19t19 -8h78q8 0 14 4
t9.5 10t3.5 13t-3.5 13t-9.5 9.5t-14 3.5h-78z" />
    <glyph glyph-name="uniE619" unicode="&#xe619;" 
d="M351 240h-177q-44 0 -75 -31t-31 -75v-176q0 -22 8.5 -41.5t22.5 -34t34 -22.5t41 -8h177q29 0 53.5 14t38.5 38.5t14 53.5v176q0 18 -5.5 34t-15 29t-22.5 23t-29.5 15t-33.5 5zM386 -42q0 -15 -10 -25.5t-25 -10.5h-177q-14 0 -24.5 10.5t-10.5 25.5v176q0 8 3 14.5
t7.5 11t11 7.5t13.5 3h177q15 0 25 -10.5t10 -25.5v-176zM954 482l-26 175q-4 28 -22 50.5t-44 32.5t-55 6l-174 -26q-44 -6 -70 -41.5t-20 -78.5l26 -175q7 -44 42 -70t79 -19l175 26q43 6 69 41.5t20 78.5zM854 432l-174 -26q-15 -3 -27 6t-14 23l-26 175q-1 10 2.5 18.5
t11 14.5t16.5 7l175 26q14 2 26 -6.5t14 -22.5l26 -175q2 -15 -6.5 -26.5t-23.5 -13.5zM811 240h-177q-44 0 -75 -31t-31 -75v-176q0 -44 31 -75t75 -31h177q44 0 75 31t31 75v176q0 44 -31 75t-75 31zM846 -42q0 -15 -10.5 -25.5t-24.5 -10.5h-177q-15 0 -25.5 10.5
t-10.5 25.5v176q0 10 5 18t13 13t18 5h177q14 0 24.5 -10.5t10.5 -25.5v-176zM351 700h-177q-28 0 -52.5 -14t-39 -38.5t-14.5 -53.5v-177q0 -21 8.5 -41t22.5 -34t34 -22.5t41 -8.5h177q29 0 53.5 14.5t38.5 38.5t14 53v177q0 12 -2.5 24t-8 22.5t-12.5 19.5t-16.5 16.5
t-20 12.5t-22.5 8t-24 3zM386 417q0 -14 -10 -24.5t-25 -10.5h-177q-9 0 -17.5 4.5t-13 13t-4.5 17.5v177q0 15 10.5 25t24.5 10h177q15 0 25 -10t10 -25v-177z" />
    <glyph glyph-name="uniE61A" unicode="&#xe61a;" 
d="M875 322q-1 -6 -1 -14t0.5 -16.5t0.5 -11.5v-363q0 -64 -65 -64h-596q-30 0 -47 25.5t-17 59.5v342v12v18v12q-24 -1 -44 20t-20 47v128q0 29 25 45t60 16h277l-119 124q-5 5 -7 12t0 13.5t7 11.5q8 7 18.5 7t18.5 -7l128 -128q7 -7 8 -17q0 10 7 17l128 128q8 7 18.5 7
t18.5 -7.5t8 -18t-8 -18.5l-119 -124h298q17 0 32 -3.5t27 -11t19.5 -19.5t7.5 -27v-128q0 -25 -18.5 -42t-45.5 -25zM789 -104q42 2 43 42v320q0 22 -10.5 32.5t-32.5 10.5h-255v-405h255zM192 -62q0 -42 43 -42h256v405h-256q-43 0 -43 -43v-298v-22zM192 536
q-24 0 -44 -11.5t-20 -31.5v-85q-4 -29 25 -46.5t61 -17.5h277v192h-299zM896 493q0 21 -10.5 32t-32.5 11h-319v-192h298q21 0 42.5 21.5t21.5 42.5v85zM896 493z" />
    <glyph glyph-name="uniE61B" unicode="&#xe61b;" 
d="M214 300q-55 0 -90 30.5t-35 83.5q0 4 1.5 8t3.5 7.5t5 6.5t6.5 5t7.5 3t8 1q8 0 10 -5t-0.5 -17t-2.5 -17q0 -25 28 -44.5t58 -19.5q6 0 13.5 1.5t15 4t14.5 6t13 7.5t11.5 9.5t9.5 11t6 12t2 12.5q0 9 0.5 14t2 12t5.5 10t10 3t11 -3.5t8 -9t4.5 -12.5t1.5 -14
q0 -51 -36 -78.5t-92 -27.5zM406 300q-107 0 -107 106q0 9 0.5 14t2 12t5.5 10t10 3q12 0 18.5 -11.5t6.5 -27.5q0 -40 35 -57q14 -7 29 -7q29 0 57 19.5t28 44.5q0 39 21 39q12 0 16.5 -11t4.5 -28q1 -50 -32.5 -79t-73.5 -27h-21zM619 300q-54 2 -91 29t-37 77q0 39 21 39
q12 0 16.5 -11t4.5 -28q0 -25 28 -44.5t58 -19.5q27 0 45.5 18.5t18.5 45.5q0 10 2.5 18.5t8 14.5t14.5 6q6 0 10 -3t5.5 -10t1.5 -12v-14q0 -50 -30.5 -78t-75.5 -28zM811 300q-57 0 -92.5 27.5t-35.5 78.5q0 7 1.5 14t4 12.5t7.5 9t12 3.5q8 0 12 -6.5t4.5 -13.5t0.5 -19
q0 -25 28 -44.5t57.5 -19.5t57.5 19.5t28 44.5q0 4 -0.5 9.5t-1.5 9t-1 8t0.5 7t3 4t6.5 1.5t8.5 -1t8 -3t6.5 -5t5 -6.5t3 -7.5t1 -8q0 -35 -16 -61t-44 -39.5t-64 -13.5zM903 383q-6 0 -7 3t0.5 8t-0.5 12l-85 299h-597l-86 -299q-1 -4 -2 -9q0 -5 -1.5 -5t-7.5 1
q-3 1 -4 2q-9 2 -15 8.5t-8 14t1 16.5l78 272q6 15 14.5 24t20 12.5t19 4.5t20.5 1h1h536h1q13 0 21 -1t20 -4.5t20.5 -12.5t12.5 -23l79 -283q3 -13 -3.5 -24.5t-18.5 -15.5q-4 -1 -9 -1zM614 195q37 0 90 -44q6 6 15 14.5t32 21t38 6.5q64 -22 64 -85q2 -22 -4 -45.5
t-17.5 -43.5t-26.5 -39t-31 -33.5t-30.5 -26t-25 -18t-14.5 -7.5q-59 19 -113.5 77t-59.5 120q-3 27 7.5 51t31 38t44.5 14zM614 237q-13 0 -27.5 -2.5t-35.5 -13t-35.5 -27.5t-22.5 -50.5t-2 -78.5q8 -67 69.5 -130.5t137.5 -82.5q65 16 127 81.5t71 131.5q7 55 -6.5 93.5
t-55.5 64.5q-24 14 -53 14q-11 0 -23 -4.5t-22 -11t-18.5 -14t-13.5 -14.5q-7 8 -15.5 14.5t-17.5 12t-18.5 9.5t-19.5 6t-19 2v0zM423 -84h-157q-51 0 -83.5 37t-32.5 91v149q0 6 0.5 9.5t1.5 6t3.5 3.5t6.5 2t9 1q13 0 17 -4.5t4 -17.5v-149q0 -29 19.5 -57t44.5 -28h171
q12 0 17 -6.5t4 -15.5q-1 -21 -25 -21zM423 -84z" />
    <glyph glyph-name="uniE61C" unicode="&#xe61c;" 
d="M844 -148h-663q-11 0 -18 7q-3 4 -4.5 8.5t-1.5 9.5l52 634q3 26 27 26h553q9 0 17.5 -8.5t9.5 -17.5l52 -633q1 -3 0 -6.5t-2.5 -7t-4.5 -5.5q-7 -7 -17 -7zM236 -96h580l-53 580h-501l-53 -580h27zM710 563h-53q0 32 -10 56t-24.5 38t-33.5 23t-34 12t-29 3
q-10 0 -22 -1.5t-27.5 -5.5t-30 -10t-29.5 -16.5t-25.5 -24t-17.5 -32.5t-7 -42h-52q0 47 20 84.5t51.5 58.5t65 31.5t64.5 10.5t63.5 -10.5t62.5 -31.5t49 -58.5t19 -84.5zM323 386q0 10 4 19.5t11 16.5t16.5 11t19.5 4q22 0 37 -15t15 -36t-15 -35.5t-36.5 -14.5
t-36.5 14.5t-15 35.5zM602 386q0 21 15 36t36 15q14 0 26 -7t19 -18.5t7 -25.5t-7 -25.5t-19 -18t-26 -6.5t-26 6.5t-18.5 18t-6.5 25.5z" />
    <glyph glyph-name="uniE61D" unicode="&#xe61d;" 
d="M828 324q-43 0 -78 -25l-1 25q1 13 -7.5 20t-18.5 7h-632q-10 0 -18 -6t-8 -21v-106q0 -92 46 -170.5t125.5 -124.5t172.5 -46q110 0 198.5 63t124.5 162q19 -19 43.5 -30t52.5 -11q54 0 92.5 38.5t38.5 93.5q0 35 -17.5 65.5t-48 48t-65.5 17.5zM696 219
q0 -125 -81.5 -207t-207.5 -82t-207.5 82t-81.5 207v79h578v-79zM828 114q-29 0 -50.5 18t-27.5 46q3 19 3 39q8 24 28.5 39.5t46.5 15.5q32 0 55.5 -23.5t23.5 -55.5q0 -46 -40 -69q-19 -10 -39 -10zM512 482q2 -25 10.5 -45.5t19.5 -31t22.5 -17.5t18.5 -9l8 -2
q6 -5 16 4.5t10 21.5q0 10 -10 19t-21.5 16t-18.5 25.5t-2 44.5q2 13 16 24t29 18.5t25.5 24t8.5 38.5q-4 19 -10.5 35t-13.5 26.5t-14.5 18.5t-14.5 12.5t-12.5 7.5t-9.5 5l-4 1q-5 2 -10.5 1t-10.5 -5t-7 -8q-3 -5 -3.5 -10t2 -9.5t7.5 -7.5q7 -5 15 -11.5t21.5 -23.5
t12.5 -32q0 -6 -3 -11.5t-7.5 -10t-10 -8.5t-12 -8.5t-13 -10t-12.5 -13.5t-10.5 -17t-7.5 -22.5t-4 -29.5zM354 482q1 -18 6 -34t12 -26.5t15.5 -19t16.5 -13t14.5 -7.5t10.5 -4l4 -1q3 -3 7.5 -1t8.5 5.5t7 9.5t4 12q-1 10 -11 19t-21.5 16t-18.5 25.5t-2 44.5q2 13 16 24
t29 18.5t25.5 24t8.5 38.5q-4 19 -10.5 35t-13.5 26.5t-14.5 18.5t-14.5 12.5t-12.5 7.5t-9.5 5l-4 1q-6 4 -15 -0.5t-13 -11.5q-3 -5 -3 -10t2 -9.5t7 -7.5q7 -5 15.5 -11.5t21.5 -23.5t12 -32q0 -11 -8 -19.5t-19.5 -16t-23 -18t-20 -30t-9.5 -47.5zM197 482
q1 -25 9.5 -45.5t19.5 -31t23 -17.5t18.5 -9t8.5 -2q3 -3 7 -1t8.5 5.5t7.5 9.5t3 12q-1 10 -11 19t-21 16t-18 25.5t-3 44.5q3 13 17 24t28.5 18.5t25.5 24t8 38.5q-3 15 -7.5 28t-10 22.5t-11 17.5t-11.5 13.5t-11.5 9.5t-10 7t-8 4.5t-6.5 2.5l-3 1q-4 2 -9.5 1t-10.5 -5
t-8 -8q-3 -5 -3 -10t2.5 -9.5t6.5 -7.5q7 -5 15.5 -11.5t21.5 -23.5t13 -32q-1 -11 -9 -19.5t-19 -16t-22.5 -18t-20 -30t-9.5 -47.5z" />
    <glyph glyph-name="uniE61E" unicode="&#xe61e;" 
d="M513 -149q-73 0 -141 22.5t-123 64t-96.5 96.5t-64.5 123.5t-23 141.5q0 91 35.5 174t95.5 143t143 95.5t174 35.5t174 -35.5t143 -95.5t95.5 -143t35.5 -174q0 -61 -16 -119t-45 -107t-70.5 -90.5t-90.5 -70.5t-107 -45t-119 -16v0zM514 694q-68 0 -129 -19t-109 -54.5
t-83.5 -84t-54.5 -109.5t-19 -128q0 -113 51 -203.5t141 -141t203 -50.5q84 0 157.5 29.5t125.5 82t82 125.5t30 158q0 112 -51 202.5t-141.5 141.5t-202.5 51v0zM619 114v-26q90 -2 132.5 -16.5t78.5 -62.5q-11 -3 -29 -32q-11 12 -24 22t-25.5 16t-27.5 10.5t-26 6.5
t-25.5 3t-22 1t-18.5 -0.5t-13 -0.5h-3h-4h-4h-6h-4h-4h-1v132h26q13 1 25 2t21 2.5t18 4.5t14.5 4.5t12.5 6t10.5 6t9 6.5t6.5 7l8 7l7 7q-12 5 -21.5 12t-15 14.5t-9 14.5t-5 14t-2 11.5t-0.5 8.5v4v0q3 82 -18 147t-57 103q-15 15 -33 25t-32 13.5t-28.5 4.5t-19.5 0.5
t-8 -0.5q-30 -4 -54 -19t-39 -34.5t-26 -45.5t-16 -47t-8 -45t-3 -33v-16v-1q-5 -31 -17 -55t-29.5 -39t-29.5 -22.5t-30 -14.5q29 -25 59.5 -38t46 -14.5t37.5 -1.5h5q10 0 17 1l21 5l-1 -137h-27q-66 0 -97 -9.5t-61 -42.5q-1 -2 -15 -2.5t-15 -2.5q-3 2 -6 3.5t-7 2.5
q-4 12 -12 19q1 0 3.5 3t3.5 5q29 45 68 60t112 17v26q-71 0 -119.5 25t-91.5 81l5 34l38 9q74 27 89 88q3 88 39 168q49 110 145 122h3h12h12q10 0 20.5 -1t27.5 -5t32.5 -10.5t34.5 -19t35 -30t32 -43.5t27 -58.5t18.5 -77.5t9.5 -97q4 -25 23.5 -38.5t37.5 -13.5l18 -1
l-27 -39q-3 -5 -7 -10.5t-20 -20t-35 -25.5t-51.5 -22t-70.5 -15v0zM619 114z" />
    <glyph glyph-name="uniE61F" unicode="&#xe61f;" 
d="M443 160h140v56h-140v-56zM639 412h112v56h-112v-56zM783 748h-289q-44 0 -75.5 -32.5t-31.5 -77.5v-282h-140q-46 0 -79 -28.5t-33 -72.5v-403h56v392q0 9 4.5 19.5t11.5 18.5t16.5 13t18.5 5h340q22 0 40 -14q6 -5 11.5 -18.5t5.5 -23.5v-392h56v392q0 64 -34 91
q-10 9 -24 13.5t-26 6t-28 1.5h-140v280q0 12 7 25t20.5 22t28.5 9h280q14 0 24.5 -3.5t17.5 -10t10.5 -17.5t3.5 -25v-784h56v786q0 45 -32 77.5t-76 32.5zM639 552h112v56h-112v-56zM275 160h140v56h-140v-56zM275 48h140v56h-140v-56zM443 48h140v56h-140v-56z" />
    <glyph glyph-name="uniE620" unicode="&#xe620;" 
d="M597 718q-66 0 -125.5 -22t-108.5 -63q-24 -20 -44 -44v0q-41 -49 -63 -108t-22 -125q0 -80 35 -154l-178 -157q-24 -21 -26 -53t20 -56l28 -31q22 -23 54 -25.5t57 17.5l140 116q11 8 11 21q0 6 -3.5 12t-9.5 9t-13 3q-5 0 -9.5 -2t-8.5 -5l-140 -113q-8 -7 -20 -6.5
t-19 8.5l-29 31q-5 5 -6 11.5t1 13t7 10.5l170 150q11 -16 23 -30.5t26 -28.5q31 -29 64 -50q21 -11 32 -17l9 -4q71 -32 148 -32q99 0 182.5 48.5t132 132t48.5 181.5q0 74 -29 141t-77.5 115.5t-115.5 77t-141 28.5v0zM597 46q-85 0 -156.5 41.5t-113 113t-41.5 155.5
q0 21 2.5 40.5t7.5 38.5t12 36.5t16.5 34.5t20.5 32t24 29t27 26q57 45 129 53q101 10 180 -54q52 -42 75 -103t13.5 -125t-51.5 -114v-1h-1q-16 -26 -40.5 -43t-54.5 -23q-62 -13 -116 22q-55 34 -69 97q-7 30 -1.5 60t22.5 56q4 7 9 12.5t11.5 10t13.5 7.5t14 5
q32 7 59 -11q13 -8 22 -20.5t12 -27.5q7 -31 -10 -58l-14 -22q-4 -6 -4 -14q0 -10 7.5 -18t18.5 -8q14 0 22 12l14 22q28 45 17 97q-6 25 -20.5 46t-36.5 35q-46 29 -98 17t-81 -57l-12 -23q-34 -69 -12.5 -144.5t88.5 -117.5q52 -33 112 -33q11 0 21.5 1t21.5 4
q83 17 129 89v1h1q48 62 58.5 138.5t-18 148.5t-89.5 122q-1 0 -2 1l-1 1q78 -38 125.5 -113t47.5 -165q0 -128 -91 -219t-220 -91v0zM597 46z" />
    <glyph glyph-name="uniE621" unicode="&#xe621;" 
d="M91 114h842q8 0 12 1t9.5 7.5t5.5 18.5q0 13 -8.5 19.5t-18.5 6.5h-26q-1 60 -20.5 115.5t-49.5 95t-66 69.5t-69 45.5t-58 16.5q-3 56 -38 96t-94 36t-95.5 -42t-35.5 -90q-32 -4 -66.5 -20.5t-69.5 -46t-63 -68t-46 -93t-19 -114.5h-26q-9 0 -17.5 -6.5t-8.5 -19.5
q0 -7 1 -12t4 -7l4 -4q1 -2 6 -2.5t5.5 -1t5.5 -0.5zM512 588q18 0 35 -6t29.5 -18t14.5 -28q-8 1 -19 1.5t-20 0t-21 -1t-19 -0.5t-24 0.5t-31 0.5t-24 -1q3 16 15.5 28t29 18t34.5 6zM512 483q94 0 171.5 -39.5t123.5 -112t47 -164.5h-684q1 92 47 164.5t123.5 112
t171.5 39.5zM907 9h-790q-10 0 -16 -2t-8 -8t-2 -7v-9v-3q-1 -23 18 -23h798q14 1 20.5 9t5.5 17q0 11 -9 18.5t-17 7.5zM418 383q-73 -14 -126 -74q-5 -6 -10 -12.5t-8.5 -12t-7 -10.5t-5.5 -9t-3.5 -7.5t-2 -4.5t-1.5 -2q-1 -3 -1 -6.5t1 -6.5t3.5 -6t6 -4t6.5 -1
q12 0 16 10q2 4 5.5 10.5t15.5 23.5t26.5 31t39 27.5t51.5 18.5q7 1 11 7t3 13.5t-7 11.5t-13 3zM418 383z" />
    <glyph glyph-name="uniE622" unicode="&#xe622;" 
d="M513 -147l-82 99q-238 302 -248 449q-1 7 -1 12q0 91 44.5 168.5t120.5 122.5t166 45q45 0 87.5 -12.5t79 -34t67 -52.5t51.5 -67.5t33 -80.5t12 -89q0 -142 -239 -448q-51 -67 -91 -112zM513 706q-79 0 -145 -40t-104.5 -108.5t-38.5 -149.5q0 -45 29.5 -113t72 -132
t84.5 -121.5t72 -93.5l30 -35q11 14 30.5 37t69.5 89t88 125t69 129t31 115q0 81 -38.5 149.5t-105 108.5t-144.5 40zM513 301q-57 0 -97.5 41t-40.5 99t40.5 99t97.5 41t97 -41t40 -99t-40 -99t-97 -41zM513 542q-21 0 -40 -8t-32.5 -22t-21.5 -33t-8 -40q0 -43 30 -73.5
t72 -30.5t71.5 30.5t29.5 73.5q0 28 -13.5 51.5t-37 37.5t-50.5 14zM513 542z" />
    <glyph glyph-name="uniE623" unicode="&#xe623;" 
d="M511 748q-52 0 -102.5 -11.5t-94.5 -34t-82.5 -53t-69 -69t-53 -82.5t-34 -94.5t-11.5 -102.5q0 -73 22.5 -141t64 -123t96.5 -96.5t123 -64t141 -22.5q91 0 174 35.5t142.5 95t95 142.5t35.5 174q0 46 -9 90t-26 84t-41.5 76t-54.5 66t-66 54.5t-75.5 41.5t-84 26
t-90.5 9zM749 175h-28v9l-208 206l-197 -196v-5h-28v28h11l199 197l10 10q5 5 10 0l10 -10l213 -211h8v-28z" />
    <glyph glyph-name="uniE624" unicode="&#xe624;" 
d="M829 615q-86 86 -201.5 116.5t-230.5 0t-201 -116.5t-116.5 -201t0 -230.5t116.5 -201.5t201 -116.5t230.5 0t201.5 116.5q64 65 97.5 148.5t33.5 168.5t-33.5 168.5t-97.5 147.5zM800 11q-78 -78 -183 -106t-209.5 0t-183 106t-106 183t0 209.5t106.5 182.5
q58 59 134 89.5t153 30.5t153 -30.5t135 -89.5q78 -78 106 -182.5t0 -209.5t-106 -183zM727 448l27 -26l-304 -303l-26 26zM478 145l-27 -26l-198 198l26 26zM478 145z" />
    <glyph glyph-name="uniE625" unicode="&#xe625;" 
d="M599 450q12 15 22 33.5t16 39.5q14 43 14 91q19 -7 31 -14t18 -13t9 -15t3 -21q0 -19 -4.5 -38.5t-14.5 -38.5q-19 -38 -39 -38q-8 0 -21 3q-7 2 -15 4.5t-19 6.5v0zM213 21q-59 75 -84 140q-7 16 -11.5 33t-8 34.5t-5 35.5t-1.5 36q0 80 31 156q31 75 88 132
q58 58 133 89t156 31q41 0 79.5 -7.5t75.5 -23.5q19 -7 36.5 -16.5t34 -20.5t32 -24t29.5 -28q58 -57 89 -132q5 -12 9.5 -25t8 -25.5t6 -25.5t4.5 -26.5t3 -26.5t1 -27q0 -80 -31.5 -155t-89.5 -132q-57 -58 -132 -89.5t-155 -31.5q-99 0 -157 32q-15 8 -26 17t-18.5 19.5
t-11 22t-3.5 24.5q0 10 4 21q2 5 5 10.5t8 11.5q3 -2 5.5 -4.5t5 -4.5t5.5 -3q7 -4 13 -4q4 0 11 4t16 11q19 16 37 40q15 20 26 46q5 13 8 21.5t3 11.5q0 4 -13 19.5t-13 30.5q0 21 12 54q12 35 34 81q27 53 43 74q2 3 5 6t5.5 6t5.5 5t5.5 4t5.5 3.5t6 2.5q2 0 5 1t8 1
q7 1 13.5 3t12 5t10 7.5t8.5 10.5q4 7 8 16t8 19.5t7 22.5q5 17 7.5 32t2.5 27q0 21 -6 27.5t-26 6.5q-31 0 -54 -4q-11 -2 -19.5 -5.5t-13.5 -7.5q-7 -5 -18.5 -17.5t-26.5 -31.5q-31 -39 -63 -89q-14 -23 -27.5 -46.5t-25.5 -48t-22.5 -49.5t-20.5 -51q-37 -104 -37 -156
q0 -3 0.5 -6.5t1.5 -7t2.5 -7.5t3.5 -8.5t5 -10t7 -11.5q-15 -19 -23 -39q-1 -3 -2.5 -7t-2.5 -8t-1.5 -7.5t-0.5 -7.5v-8q0 -64 69.5 -105t183.5 -41q43 0 86 8.5t84 25.5q83 34 146 97t97 145q34 83 34 171q0 89 -34 170q-34 82 -97 146q-21 21 -44 39t-48.5 32.5
t-52.5 25.5q-82 34 -171 34q-90 0 -171 -34q-21 -8 -40 -18.5t-37 -22.5t-35 -26t-33 -30q-63 -63 -97 -145q-17 -41 -25.5 -84t-8.5 -87q0 -78 23 -143q24 -67 70 -118q9 -11 19 -17l4 -2q2 -1 4.5 -2t4.5 -1.5t4 -0.5q1 0 3 0.5t4 1.5q2 0 3.5 0.5t2.5 1t3.5 1t3.5 0.5v0z
M363 20q38 27 63 62q8 12 15 24.5t12 26t8 27.5q27 -18 36 -28.5t9 -21.5q0 -31 -31 -73q-6 -8 -12 -14.5t-12 -11.5t-12 -8.5t-11.5 -5t-11.5 -1.5q-4 0 -9.5 1.5t-12.5 4.5q-13 6 -31 18zM363 20z" />
    <glyph glyph-name="uniE626" unicode="&#xe626;" 
d="M830 616q-87 86 -202.5 117t-231 0t-201.5 -117t-117 -201.5t0 -231t117 -202t201.5 -117t231 0t202 117t117 202t0 231t-116.5 201.5zM801 10q-79 -78 -184 -106t-210 0t-183.5 106.5t-106 183.5t0 210t106 183.5t183.5 106t210 0t184 -106.5q119 -119 119 -288
t-119 -289zM697 510l27 -26l-397 -397l-26 27zM724 114l-27 -27l-383 384l26 26zM724 114z" />
    <glyph glyph-name="uniE627" unicode="&#xe627;" 
d="M830 616q-87 86 -202.5 117t-231 0t-201.5 -117t-117 -201.5t0 -231t117 -202.5q64 -64 148 -97.5t169 -33.5t169 33.5t148.5 98t98 148.5t33.5 169t-33.5 169t-97.5 148zM801 10q-79 -78 -184 -106t-210 0t-183.5 106.5t-106 183.5t0 210t106 183.5t183.5 106t210 0
t183.5 -106t106.5 -183.5t0 -210t-106 -184zM728 449l27 -27l-305 -304l-26 26zM477 144l-26 -26l-199 199l27 26zM477 144z" />
    <glyph glyph-name="uniE628" unicode="&#xe628;" 
d="M776 -151h-527q-44 0 -75 31t-31 75v635q0 28 14.5 52.5t38.5 38.5t53 14h53v27q0 5 2 10t5.5 8.5t8.5 5.5t10 2h369q11 0 19 -7.5t8 -18.5v-27h52q44 0 75 -31t31 -74v-635q0 -14 -4 -28t-10.5 -25.5t-16.5 -21t-21.5 -16.5t-25 -11t-28.5 -4v0zM829 590q0 14 -7 26
t-19 19.5t-27 7.5h-79h-369h-79q-22 0 -37.5 -15.5t-15.5 -37.5v-635q0 -22 15.5 -37.5t37.5 -15.5h527q22 0 37.5 15.5t15.5 37.5v635v0zM302 61h422v-53h-422v53v0zM302 219h422v-52h-422v52v0zM302 378h422v-53h-422v53v0zM302 537h422v-53h-422v53v0zM302 537z" />
    <glyph glyph-name="uniE629" unicode="&#xe629;" 
d="M160 731q-26 0 -48 -13t-35 -36.5t-13 -50.5v-630q0 -5 1.5 -10t4.5 -9.5t7 -7.5t9 -4.5t10 -1.5q14 0 23 9.5t9 23.5v630q0 5 1.5 9.5t3.5 8t5 6.5t6.5 5.5t7.5 3.5t8 1h465q7 0 11.5 -5t4.5 -11v-117q0 -1 1 -3v-2l1 -6q1 -2 3.5 -6t3.5 -5q1 -2 5 -4q0 -1 1.5 -2
t2.5 -1l210 -110q5 -4 9.5 -9t8 -10.5t5.5 -12t3 -13.5t1 -15v-334q0 -14 9.5 -23.5t22.5 -9.5q9 0 16.5 4.5t11.5 12t4 16.5v334q0 75 -56 116l-4 2l-195 102v96q0 34 -23.5 58t-56.5 24h-465zM322 -66q-18 0 -33.5 9t-24.5 25t-9 35q0 29 20 49.5t47.5 20.5t47.5 -20.5
t20 -49t-20 -49t-48 -20.5zM701 -66q-18 0 -33.5 9t-24.5 25.5t-9 34.5q0 29 20 49.5t47.5 20.5t47.5 -20.5t20 -49t-20 -49t-48 -20.5zM322 139q-54 0 -92.5 -39.5t-38.5 -96t38.5 -96.5t92.5 -40q45 0 80 28.5t47 72.5h126q12 -44 47 -72.5t79 -28.5q55 0 93.5 40
t38.5 96.5t-38.5 96t-93.5 39.5q-46 0 -81.5 -29.5t-45.5 -75.5h-124q-10 46 -46 75.5t-82 29.5zM673 233q-13 0 -22.5 10t-9.5 24v132q0 14 9.5 24t22.5 10t22.5 -10t9.5 -24v-99h96q14 0 23 -10t9 -23.5t-9 -23.5t-23 -10h-128zM673 233z" />
    <glyph glyph-name="uniE62A" unicode="&#xe62a;" 
d="M160 731q-26 0 -48 -13t-35 -36.5t-13 -50.5v-630q0 -5 1.5 -10t4.5 -9.5t7 -7.5t9 -4.5t10 -1.5q14 0 23 9.5t9 23.5v630q0 5 1.5 9.5t3.5 8t5 6.5t6.5 5.5t7.5 3.5t8 1h465q7 0 11.5 -5t4.5 -11v-117q0 -1 1 -3v-2l1 -6q1 -2 3.5 -6t3.5 -5q1 -2 5 -4q0 -1 1.5 -2
t2.5 -1l210 -110q5 -4 9.5 -9t8 -10.5t5.5 -12t3 -13.5t1 -15v-334q0 -14 9.5 -23.5t22.5 -9.5q9 0 16.5 4.5t11.5 12t4 16.5v334q0 75 -56 116l-4 2l-195 102v96q0 34 -23.5 58t-56.5 24h-465zM322 -66q-18 0 -33.5 9t-24.5 25t-9 35q0 29 20 49.5t47.5 20.5t47.5 -20.5
t20 -49t-20 -49t-48 -20.5zM701 -66q-18 0 -33.5 9t-24.5 25.5t-9 34.5q0 29 20 49.5t47.5 20.5t47.5 -20.5t20 -49t-20 -49t-48 -20.5zM322 139q-54 0 -92.5 -39.5t-38.5 -96t38.5 -96.5t92.5 -40q45 0 80 28.5t47 72.5h126q12 -44 47 -72.5t79 -28.5q55 0 93.5 40
t38.5 96.5t-38.5 96t-93.5 39.5q-46 0 -81.5 -29.5t-45.5 -75.5h-124q-10 46 -46 75.5t-82 29.5zM673 233q-13 0 -22.5 10t-9.5 24v132q0 14 9.5 24t22.5 10t22.5 -10t9.5 -24v-99h96q14 0 23 -10t9 -23.5t-9 -23.5t-23 -10h-128zM673 233z" />
    <glyph glyph-name="uniE62B" unicode="&#xe62b;" 
d="M928 363h-352v352q0 13 -9.5 22.5t-22.5 9.5h-64q-13 0 -22.5 -9.5t-9.5 -22.5v-352h-352q-6 0 -12 -2.5t-10.5 -7t-7 -10.5t-2.5 -12v-64q0 -13 9.5 -22.5t22.5 -9.5h352v-352q0 -13 9.5 -22.5t22.5 -9.5h64q7 0 13 2.5t10 7t6.5 10.5t2.5 12v352h352q6 0 12 2.5
t10.5 6.5t7 10t2.5 13v64q0 5 -1.5 10t-4.5 9t-7 7t-9 4.5t-10 1.5z" />
    <glyph glyph-name="uniE62C" unicode="&#xe62c;" 
d="M96 363h830q9 0 16 -4.5t11.5 -12t4.5 -15.5v-64q0 -3 -0.5 -6t-1.5 -5.5t-2.5 -5t-3 -4.5t-4 -3.5t-4.5 -3t-5 -2.5t-5.5 -1.5t-5.5 -0.5h-830q-13 0 -22.5 9.5t-9.5 22.5v64q0 13 9.5 22.5t22.5 9.5z" />
    <glyph glyph-name="uniE62D" unicode="&#xe62d;" 
d="M559 -147h-4q-9 1 -16 8t-8 16l-40 403l-402 39q-9 2 -15.5 8.5t-7.5 15.5q-3 21 16 30l837 372q8 3 16.5 1.5t14.5 -7.5t8 -14.5t-2 -16.5l-372 -839q-7 -16 -25 -16zM171 365l334 -48q10 -1 16.5 -7.5t7.5 -16.5l47 -333l321 725z" />
    <glyph glyph-name="uniE62E" unicode="&#xe62e;" 
d="M837 494l-230 230l-20 20q-5 4 -10.5 4t-9.5 -4l-20 -20h-1l-222 -222q-4 -4 -4 -10t4 -10l20 -20q3 -3 6.5 -4t7.5 0t6 4l188 188v-403h-353q-6 0 -10 -4t-4 -10v-368q0 -2 1 -5t3 -4.5t4.5 -3t5.5 -1.5h28q3 0 5.5 1.5t4.5 3t3 4.5t1 5v326h354q2 0 3.5 0.5t3.5 1.5
l2 2q2 1 3 2.5t1.5 3.5t0.5 4v436l188 -187q10 -10 20 0l20 20q4 4 4 9.5t-4 10.5z" />
    <glyph glyph-name="uniE62F" unicode="&#xe62f;" 
d="M512 747q-73 0 -141.5 -22.5t-123.5 -64t-96.5 -96.5t-64 -123.5t-22.5 -141.5q0 -91 35.5 -174t95.5 -143t143 -95.5t174 -35.5t174 35.5t143 95.5t95.5 143t35.5 174t-35.5 174t-95.5 143t-143 95.5t-174 35.5zM512.5 -60q-97.5 0 -180 48t-130.5 130.5t-48 180t48 180
t130.5 130.5t180 48t180 -48t130.5 -130.5t48 -180t-48 -180t-130.5 -130.5t-180 -48zM512 433q-56 0 -95 -39t-39 -95t39 -95.5t95 -39.5q28 0 52.5 11t42.5 29t29 42.5t11 52.5q0 56 -39.5 95t-95.5 39z" />
    <glyph glyph-name="uniE630" unicode="&#xe630;" 
d="M920 634q-181 -187 -241 -249q-13 -14 -15 -19t-2 -25v-95q0 -62 0.5 -119.5t0.5 -123.5v-91q0 -24 1 -37q0 -2 -0.5 -3.5t-1.5 -6t-3.5 -7.5t-7.5 -6t-12 -3q-5 0 -9 2.5t-6 5t-3 6.5t-1.5 6.5t-0.5 5.5v177v167v129v12v9v6v5q0 2 1 5t4.5 8t7.5 8t9.5 8t6.5 6
q27 25 87.5 87.5t107.5 112.5l47 50q8 7 8 17q0 9 -6.5 15.5t-15.5 6.5h-728q-4 0 -8 -1.5t-7 -4.5t-4.5 -7t-1.5 -9q0 -3 1 -6.5t2.5 -6t3.5 -4.5q177 -186 238 -245q1 -1 7 -6.5t10 -9.5t9 -9.5t6 -9.5l1 -41v-254h-1q0 -1 -1.5 -3t-3.5 -3t-6 -2t-10 -1q-4 0 -8 1
t-6.5 2.5t-4 2.5t-1.5 2l-1 1q-2 174 0 255q1 13 -2 22q-3 7 -15 18q-28 26 -88.5 88t-106.5 111l-46 50q-20 20 -20 48q0 27 19 46.5t45 19.5h728q27 0 45.5 -19.5t18.5 -46.5q0 -9 -2.5 -18t-7 -16.5t-10.5 -13.5v0zM920 634z" />
    <glyph glyph-name="uniE631" unicode="&#xe631;" 
d="M792 23q61 59 95.5 138t34.5 168q0 34 -5.5 67.5t-15.5 64.5t-25 60t-33.5 55t-41 49t-47.5 41.5t-54 33.5t-59 25.5t-63 16t-67 5.5q-111 0 -206 -56t-150 -152.5t-55 -210t55 -210t150 -152.5t206 -56q128 0 233 74l123 -126q11 -11 23 -2l25 20q12 9 1 21zM164 328.5
q0 96.5 46.5 178t126.5 129t174 47.5q71 0 135.5 -28t111 -75.5t74 -113t27.5 -137.5q0 -77 -30.5 -145.5t-84.5 -118.5q-7 0 -11 -3l-25 -20q-4 -3 -5 -9q-28 -19 -58.5 -32t-64.5 -19.5t-69 -6.5q-94 0 -174 47t-126.5 128.5t-46.5 178z" />
    <glyph glyph-name="uniE632" unicode="&#xe632;" 
d="M960 545h-90v-16l-364 -359l-352 346v28h-89v-89h23l402 -394q4 -5 10 -6.5t11.5 0t9.5 6.5l402 395h37v89z" />
    <glyph glyph-name="uniE633" unicode="&#xe633;" 
d="M903 122v-126q0 -30 -15 -55.5t-40.5 -40.5t-56.5 -15h-614q-46 0 -78.5 32.5t-32.5 78.5v608q0 22 8.5 42.5t23.5 35.5t36 23.5t43 8.5h531q7 0 13.5 -3.5t10 -10t3.5 -13.5v-139h56q46 0 79 -32t33 -78v-71q8 -5 15.5 -11t13.5 -13t11 -15t8.5 -17t5.5 -19t2 -20v-55
q0 -30 -15.5 -55.5t-40.5 -39.5zM680 659h-503q-15 0 -28 -7.5t-20 -20t-7 -27.5v-71q26 15 55 15h503v111zM847 438q0 15 -7.5 27.5t-20.5 20t-28 7.5h-614q-23 0 -39 -16t-16 -39v-442q0 -15 7 -28t20 -20t28 -7h614q23 0 39.5 16t16.5 39v110h-112q-22 0 -43 9t-36 23.5
t-23.5 35t-8.5 43.5v55q0 46 32.5 78.5t78.5 32.5h112v55v0zM903 272q0 6 -1 11.5t-3.5 10.5t-5.5 9t-6.5 8t-8 7t-9.5 5t-10.5 3t-11.5 1h-112q-23 0 -39 -16t-16 -39v-55q0 -11 4 -21.5t11.5 -18t18 -11.5t21.5 -4h112q15 0 28 7t20.5 20t7.5 28v55zM819 217h-56
q-3 0 -5.5 0.5t-5 1.5t-5 2.5t-3.5 3.5l-4 4q-1 2 -2 4.5t-2 5.5t-1 5q0 12 8.5 20t19.5 8h56q8 0 14.5 -3.5t10 -10t3.5 -14.5q0 -11 -8 -19t-20 -8zM819 217z" />
    <glyph glyph-name="uniE634" unicode="&#xe634;" 
d="M719 534q-19 0 -31.5 -5.5t-12.5 -18.5q0 -14 13 -21t31 -7q34 0 68 -20t62.5 -57t47.5 -94.5t22 -126.5v-35v-5h-285v447q0 27 -15 44t-39 17h-456q-25 0 -42.5 -18.5t-17.5 -45.5v-427q0 -26 18 -42t43 -16h61v-20q0 -63 38.5 -103t98.5 -40q59 0 92.5 42.5t33.5 107.5
q0 1 1 6.5t1 6.5h143q-1 -1 -2.5 -6.5t-1.5 -6.5q0 -75 40.5 -112.5t105.5 -37.5q60 0 103 44t43 106q0 1 -0.5 3.5t-1.5 5.5t-2 4h41q15 0 26 6.5t12 19.5q4 34 3 51q-5 99 -36.5 179t-85 127.5t-119.5 47.5zM594 612v-468h-489v468h489zM410 83q0 -38 -21.5 -70t-59.5 -32
q-30 0 -51 10.5t-31 28t-14.5 34.5t-4.5 36q0 7 -1 13h183v-20zM838 83q0 -45 -33.5 -73.5t-68.5 -28.5q-17 0 -34.5 5.5t-34 16.5t-26 32t-7.5 48v10v10h143h61v-20zM838 83z" />
    <glyph glyph-name="uniE635" unicode="&#xe635;" 
d="M940 664q-8 0 -13 -7t-6 -15t-1 -19v-42l-815 -188q3 41 -21 42q-21 1 -21 -36v-34v-132v-34q0 -36 21 -36q8 0 12.5 5.5t6.5 15.5t4 28l178 -42l-11 -69q-6 -26 8.5 -49.5t40.5 -29.5l256 -60q4 -1 7 -1h8q11 0 21.5 3.5t19 10.5t14.5 16.5t9 20.5l10 48l252 -64l-3 -29
q0 -6 0.5 -11t2 -9t4.5 -7t7 -4.5t9 -1.5q21 0 21 33v66v532v66q0 16 -5 24.5t-10 8.5h-6zM105 351l84 21v-146l-84 21v104zM296 66l11 89l339 -80l-32 -90zM230 372l690 167v-501l-690 188v146z" />
    <glyph glyph-name="uniE636" unicode="&#xe636;" 
d="M350 136q4 0 6.5 0.5t5 1.5t4 2.5t2.5 4t1.5 5t0.5 6.5v61h62q22 0 20 21q0 3 -1.5 6t-3 5.5t-4 4.5t-5.5 3t-6 1h-62v61h62q7 0 12.5 7.5t5.5 16.5q0 17 -18 17h-41l66 60q4 4 5 9t-0.5 10t-5.5 9q-3 3 -7 4t-7.5 1t-7 -1.5t-6.5 -4.5l-70 -75l-69 75q-6 6 -14 6
t-14 -5.5t-6.5 -13.5t4.5 -14l50 -60h-40q-5 0 -8.5 -1t-7 -3.5t-5 -5.5t-1.5 -7q0 -9 6.5 -16.5t15.5 -7.5h61v-61h-61q-9 0 -15 -6t-6 -14t6 -14.5t15 -6.5h61v-61q0 -2 0.5 -5t2 -5t3.5 -4t4 -3.5t4.5 -2t5.5 -0.5zM957 522q0 2 -2.5 7t-3.5 7.5t-3.5 4.5t-6.5 2h-204
q-3 0 -10 -2t-13.5 -5.5t-9.5 -5.5q-23 -24 -48 -68v122q0 10 -9 15t-21 5h-536q-10 0 -17.5 -7t-7.5 -18v-561q0 -10 7.5 -17.5t17.5 -7.5h450q10 0 17.5 7.5t7.5 17.5q0 16 -32 16h-427v530h509v-286v-5v-5v-5q0 -3 0.5 -4.5t1 -3.5t2 -3t3.5 -2t4 -1q11 0 20.5 9.5
t9.5 19.5q-2 30 0 56t8.5 47t13 37t17 31.5t16 22.5t15.5 18t11 13h163q-13 -20 -26 -43.5t-26 -53.5t-21 -63.5t-8 -64.5v-244h-102q-35 0 -35 -16q0 -10 7.5 -17.5t17.5 -7.5h124q5 0 10 1.5t9.5 3.5t6.5 6t2 10v264q0 32 10.5 66.5t22.5 58.5t28 48t22 31.5t11 12.5
q11 12 4 27z" />
    <glyph glyph-name="uniE637" unicode="&#xe637;" 
d="M851 581q-76 94 -184.5 137t-223.5 25.5t-207 -94.5q-74 -60 -116 -144.5t-49 -176.5q0 -5 0.5 -16t6.5 -28.5t17 -28.5q23 -24 56 -24q34 0 57.5 24t23.5 58q0 17 -6 32t-17 26t-26 17.5t-32 6.5q-12 0 -23 -4q33 139 140 227q84 70 188.5 83t200.5 -28.5t164 -125.5
q58 -71 78.5 -160t1 -176t-74.5 -158l30 -134l-117 52v0q-108 -73 -242 -69t-235 83q-14 10 -20 16q-19 18 -50 53.5t-53 66.5q-3 3 -5.5 3.5t-4 0t-3.5 -3t-3.5 -5t-4 -6.5t-5.5 -8q22 -47 54 -87q70 -86 170 -128.5t207.5 -33.5t199.5 67l156 -61l-25 189q40 59 59 128.5
t17 139t-27.5 139t-72.5 126.5zM151 354q11 0 20.5 -5.5t15 -15t5.5 -20.5q0 -17 -12 -29t-29 -12q-11 0 -20.5 6t-14.5 15q-3 5 -4 10t-1 10t1 9t2.5 8t3.5 7q13 17 33 17zM462 317q0 22 -11 40.5t-29.5 29.5t-40 11t-40 -11t-29.5 -29.5t-11 -40.5q0 -33 23.5 -57
t57.5 -24q16 0 31 6.5t25.5 17.5t17 26t6.5 31zM341 317q0 17 12 28.5t28.5 11.5t28.5 -11.5t12 -28.5t-12 -28.5t-28 -11.5q-11 0 -20.5 5t-15 14.5t-5.5 20.5zM681 317q0 34 -23.5 57.5t-57 23.5t-57 -23.5t-23.5 -57t23.5 -57.5t57.5 -24q21 0 40 11t29.5 29.5t10.5 40.5
zM560 317q0 17 12 28.5t28.5 11.5t28.5 -11.5t12 -28.5t-12 -28.5t-28.5 -11.5t-28.5 11.5t-12 28.5zM560 317z" />
    <glyph glyph-name="uniE638" unicode="&#xe638;" 
d="M909 606q-170 -178 -244 -254q-1 -1 -2.5 -3t-3 -3t-3 -3t-3 -3.5t-3 -3.5t-2.5 -3.5t-1 -3.5q-3 -7 -3 -31v-99q0 -58 0.5 -111.5t0.5 -100.5t0.5 -76.5t0.5 -28.5v-4q0 -2 -2 -7t-4.5 -9t-9 -7.5t-14.5 -3.5q-7 0 -11.5 2.5t-7 6t-4 8.5t-2 8t-0.5 6v424v18
q0 9 -0.5 12.5t0 7.5t1.5 8q1 3 3.5 6.5t5 6.5t6.5 7t7.5 6.5t7 6t5.5 4.5q15 14 36.5 36t44 45.5t46.5 48.5t45 47t37.5 39.5t25.5 28.5l10 10q4 4 6.5 9.5t2.5 11.5q0 4 -1 7.5t-2.5 6.5t-4 5.5t-5.5 4.5t-6.5 3t-6.5 1h-685q-8 0 -14 -4t-9.5 -10t-3.5 -14q0 -12 9 -21
q165 -176 241 -249q1 -1 8 -7.5t12.5 -11.5t11 -12t7.5 -12q1 -4 1.5 -16.5t-0.5 -23.5v-10v-207q0 -1 -0.5 -1.5t-2 -2.5t-4.5 -3.5t-8 -3t-12 -1.5q-6 0 -10.5 1.5t-7.5 3t-4.5 3t-2.5 3.5l-1 1q-3 108 0 207q1 17 -3 27q-3 10 -18 23q-78 72 -244 254h1q-25 24 -25 59
q0 13 4 25.5t11 22.5t17 17.5t22 12t25 4.5h685q9 0 18 -2.5t16.5 -6.5t14.5 -9.5t12.5 -12.5t9.5 -15t6 -17t2 -19q0 -35 -25 -59v0zM909 606z" />
    <glyph glyph-name="uniE639" unicode="&#xe639;" 
d="M512 748q-73 0 -141.5 -23t-123.5 -64.5t-96.5 -96.5t-64.5 -123.5t-23 -141.5q0 -91 36 -174.5t96 -143.5t143 -95.5t174 -35.5t174.5 35.5t143.5 95.5t95.5 143.5t35.5 174.5t-35.5 174t-95.5 143t-143.5 96t-174.5 36zM512.5 -97q-107.5 0 -199 53t-144.5 144
t-53 198.5t53 199t144.5 144.5t199 53t198.5 -53t144 -144.5t53 -199t-53 -198.5t-144 -144t-198.5 -53zM484 35h65v60h-65v-60zM537 536q-40 0 -72.5 -9.5t-55.5 -28.5q-20 -16 -32 -35.5t-23 -54.5l56 -9q4 14 7.5 23t7.5 16t10 14q33 41 100 41q23 0 43 -6t34.5 -16.5
t22.5 -26t8 -33.5q0 -29 -23 -53q-9 -8 -19 -16t-27 -19q-29 -19 -39 -27t-20 -21q-7 -9 -11.5 -17.5t-7.5 -17.5t-4.5 -19.5t-1.5 -23.5q0 -17 -0.5 -24t-2.5 -18h58q-1 12 -1.5 20t-0.5 16q0 18 4 32.5t13 26.5q11 15 60 49q11 7 19 12.5t14 10.5t10 9.5t9 9.5
q12 16 18.5 34t6.5 38q0 55 -44.5 89t-115.5 34z" />
    <glyph glyph-name="uniE63A" unicode="&#xe63a;" 
d="M576 448h-319v-43h319v43zM257 108h90q1 17 5 42h-95v-42zM406 681v-42h-85v-43h191v43h-64v42h-42zM379 299h-122v-43h110q5 24 12 43zM725 490v-85h42v88q0 73 -38.5 120.5t-106.5 47.5l-46 -1v-43h42q23 0 43 -11t34 -29t22 -40.5t8 -46.5zM533 745h-233v-43h233v43z
M109 108v382q0 49 30.5 88t75.5 39h42v43l-46 1q-67 0 -106 -47.5t-39 -120.5v-381q0 -83 47.5 -139.5t125.5 -56.5h167v43h-170q-55 0 -91 44.5t-36 104.5zM945 200l-41 110v1q-11 28 -26.5 40t-25.5 12l-2 -1h-338q-3 0 -6 -0.5t-6 -1.5t-6.5 -2.5t-6.5 -4t-6 -4.5
q-7 -7 -13 -16t-10 -20q-46 -116 -52 -149v-5l1 -3q-1 -3 -1 -6q0 -70 42 -85v-127q0 -41 13.5 -61.5t57.5 -23.5h326q71 0 71 85v127q41 16 41 85v2v1q1 7 -0.5 14t-4 15.5t-7.5 17.5zM873 -84q0 -11 -4.5 -16t-16.5 -5h-340q-11 0 -16 5t-5 16v149q35 1 58 28l8 10l4 -6
q28 -32 57 -32q36 0 64 30q1 -1 2 -2.5t2 -2.5t2.5 -2t2.5 -2q12 -9 25.5 -15t29.5 -6q18 0 37 10t24 25q1 -1 3 -6t3.5 -6.5t4.5 -6t7.5 -6.5t11 -4.5t16 -4t20.5 -1.5v-149zM873 108q-4 0 -10 -0.5t-9 -0.5t-6.5 0.5t-6.5 2t-5 4.5q-2 2 -3 4l-2 6q-1 2 -1.5 4.5t-0.5 5.5
v5q0 2 0.5 4t0.5 3.5v2.5l1 1q0 5 -1.5 9.5t-7 8t-12.5 3.5q-6 1 -10 0t-6 -2.5t-3 -4.5l-1 -4q-1 -2 -1.5 -5.5t-0.5 -4.5q-1 -12 -6 -23t-14.5 -19t-21.5 -8q-18 0 -30.5 14t-12.5 36q0 12 -6.5 16.5t-14.5 4.5q-23 0 -21 -21t-10.5 -31.5t-32.5 -10.5q-11 0 -20 2.5
t-13 7.5q-3 4 -5 8t-2.5 6.5t-1 8.5t-0.5 9l-2 8q0 2 -2 6t-6.5 6t-10.5 1q-24 -2 -22 -21h-1l-2 -3q-2 -2 -4.5 -4t-6 -6t-7.5 -8q-3 -3 -5 -9t-5 -9t-11 -3q-42 0 -43 42h1q17 85 42 149q8 20 21 21h319q1 0 7 -0.5t12 -2t13 -6t10 -12.5q27 -96 43 -149q0 -10 -3 -18
t-8.5 -13.5t-13.5 -8t-18 -2.5zM449 150h-1v0h1z" />
    <glyph glyph-name="uniE63B" unicode="&#xe63b;" 
d="M256 405h320v43h-320v-43zM725 491v-86h43v89q0 73 -39 120.5t-107 47.5l-46 -1v-42h43q45 0 75.5 -39.5t30.5 -88.5zM448 231q0 -53 73.5 -88.5t182.5 -35.5t181.5 35.5t72.5 88.5q0 54 -73 93t-181 39t-182 -39t-74 -93zM917 235q0 -35 -58 -60t-154.5 -25t-155 25
t-58.5 60t58.5 60t154.5 25q28 0 54 -2.5t47 -6.5t39 -10.5t31.5 -14t23 -15.5t14 -17.5t4.5 -18.5zM379 299h-123v-43h111q1 8 3 16t4 14.5t5 12.5zM107 107v384q0 49 30.5 88.5t76.5 39.5h42v42l-46 1q-45 0 -78.5 -22.5t-50.5 -60.5t-17 -85v-382q0 -84 48 -140.5
t126 -56.5h168v43h-171q-37 0 -67 21t-45.5 55t-15.5 73zM533 747h-234v-43h234v43zM939 0q-16 4 -22 -11q-1 -6 0 -10l3 -1q1 -4 -3 -20q0 -33 -54.5 -48.5t-158.5 -15.5q-213 0 -213 64v21q3 23 -15 22q-6 0 -6 -1q-11 -1 -16.5 -10t-5.5 -23q0 -38 20.5 -62t78.5 -39
t156 -15q134 0 196 26.5t61 80.5q0 13 -1 20.5t-4 12.5t-6.5 6.5t-9.5 2.5zM406 683v-43h-86v-43h192v43h-64v43h-42zM256 107h91q1 18 4 43h-95v-43zM939 128q-11 3 -18.5 -5.5t-3.5 -15.5l2 -1l-2 -20q0 -33 -54.5 -48.5t-158.5 -15.5q-213 0 -213 64v21q2 13 -3.5 18.5
t-11.5 4.5l-6 -2q-11 -1 -16.5 -10t-5.5 -23q0 -38 20.5 -62t78.5 -39t156 -15q134 0 196 26.5t61 80.5q-1 25 -5 32.5t-16 9.5z" />
    <glyph glyph-name="uniE63C" unicode="&#xe63c;" 
d="M951 385q-16 10 -30 -4l-31 -54q5 3 5.5 8t-1.5 31q-3 25 -4 43q-22 107 -97.5 184.5t-180 107.5t-212.5 7q-108 -22 -191 -96.5t-120.5 -180t-15.5 -213.5q17 -83 57.5 -149.5t101 -112t146 -63.5t185.5 -2q54 9 103 42.5t99 84.5l1 1l1 1l1 2q2 2 2.5 4.5t0.5 4.5
q0 9 -17 24q-16 13 -27 0q-32 -32 -51 -49t-52 -36.5t-66 -26.5q-74 -17 -145 -2.5t-129 50t-99.5 95t-56.5 132.5q-17 74 -3 146t49 131t94 101.5t132 57.5q98 20 192 -8.5t161.5 -99t87.5 -168.5q1 -5 2 -11t2 -11.5t1.5 -11.5t1.5 -11l-44 35q-7 6 -16 5t-14 -8
q-3 -3 -4 -7.5t-0.5 -8.5t2.5 -7.5t5 -6.5l81 -93q7 -6 16 -5q3 1 5.5 2t5 2.5t4.5 3.5l65 109v1q6 6 5 15t-8 15zM454 109q0 -3 0.5 -6.5t2.5 -7t4.5 -6.5t8 -5t12.5 -2q25 -1 25 26v55h111q27 0 27 28q0 5 -0.5 9t-2 6.5t-2.5 4.5t-3.5 3.5t-3.5 2t-4 1t-4 0.5h-4h-3h-109
v27h109v0q27 0 27 28q0 14 -8.5 20.5t-18.5 6.5h-109v27l109 82l4 3q5 4 7 6t4.5 6.5t1.5 9.5t-4.5 12.5t-11.5 15.5q-6 6 -13.5 6.5t-12.5 -4.5l-111 -83l-109 82q-4 3 -9 1t-10 -9.5t-9 -18.5q-7 -21 0 -27l109 -82v-27h-81h-28q-7 0 -12.5 -1.5t-8.5 -3t-4.5 -5.5
t-1.5 -6v-6v-5q0 -7 2 -12.5t8.5 -10.5t16.5 -5h109v-27h-109q-15 0 -21 -8.5t-6 -18.5q0 -27 41 -28l95 1v-55v0z" />
    <glyph glyph-name="uniE63D" unicode="&#xe63d;" 
d="M960 299q0 13 -12 19l-132 65l132 64q12 6 12 19t-12 19l-427 208q-5 2 -9 2l-8 -2h-1l-426 -208q-6 -3 -9 -8t-3 -11q0 -13 12 -19h-1l133 -64l-133 -65h1q-6 -3 -9 -8t-3 -11q0 -13 12 -18h-1l133 -65l-133 -65h1q-3 -1 -5 -3t-3.5 -4t-2.5 -5t-1 -6q0 -13 12 -19h-1
l428 -208q2 -1 4 -1.5t4 -0.5q4 0 9 2l427 208q12 6 12 19q0 6 -3.5 11t-8.5 7l-132 65l132 65q3 1 6 4t4.5 6.5t1.5 7.5zM132 466l380 185l380 -185l-380 -185zM892 133l-380 -186l-380 186l124 60l248 -121q4 -2 8 -2t9 2l247 121l124 -60v0zM512 114l-380 185l124 61
l248 -121q4 -2 8 -2t9 2l247 121l124 -61zM512 114z" />
    <glyph glyph-name="uniE63E" unicode="&#xe63e;" 
d="M378 199h-44v-112h44v112zM244 199h-44v-112h44v112zM876 645h-728q-34 0 -58 -24t-24 -58v-527q0 -34 24 -58.5t58 -24.5h728q34 0 58.5 24.5t24.5 58.5v527q0 22 -11.5 41t-30.5 30t-41 11zM914 65q0 -67 -67 -67h-670q-67 0 -67 67v335h804v-335zM914 444h-804v90
q0 67 67 67h670q67 0 67 -67v-90zM512 199h-44v-112h44v112zM512 199z" />
    <glyph glyph-name="uniE63F" unicode="&#xe63f;" 
d="M922 381q-16 11 -33 16.5t-34 5.5q-33 0 -69 -22l-39 -41l-54 54l-39 -42l54 -53l-50 -51l36 -42l55 55l6 -6q53 -58 95 -58h1q30 1 51 10t34 25.5t18 40.5q19 64 -32 108zM856 254h-3q-20 4 -35 15t-24 28l-2 3l2 4q8 19 23.5 29t36.5 11l1 1v5l1 -6q22 -2 34.5 -13.5
t13.5 -29.5q2 -37 -48 -47zM366 248l-49 51l54 53l-39 42l-54 -54l-41 42q-35 21 -68 21q-11 0 -22.5 -2.5t-22.5 -7.5t-22 -12q-51 -44 -32 -107q16 -73 104 -77h1q41 0 95 57l6 7l55 -55zM231 297q-5 -9 -11 -16t-13.5 -12t-16.5 -9t-19 -6h-3q-28 6 -38 19t-9 28
q1 39 48 43l1 1l-1 5l1 -6q21 -1 36.5 -11t24.5 -29l1 -4zM548 300l169 181q30 58 -14 120q-41 34 -82 34q-24 0 -49 -12l-61 -60l-64 58q-22 14 -46 14q-35 0 -77 -28q-51 -54 -25 -111q3 -10 5 -12q1 -2 3 -4l4 -4l3 -4q2 -1 3 -1l156 -169l-168 -180q-19 -28 -15 -60
t29 -69q39 -29 73 -29q27 0 53 18l65 58l61 -57q15 -7 29 -11t27 -4q20 0 39 9t36 26q47 48 12 121zM359 497q0 1 -1 1l-2 3q-2 2 -3 4t-3 3l-2 3q0 2 -1.5 4.5t-2.5 4.5v2q-5 22 10 42q12 17 35 17q14 0 31 -6h1l49 -44l-41 -45l36 -38l46 45l44 -44l43 40l-45 39l41 47
q21 11 37 11q18 0 29 -12q28 -24 11 -63l-162 -171zM658 25q-13 -7 -28 -7q-9 0 -18.5 3t-19.5 8l-41 47l45 39l-42 40l-45 -45l-45 45l-37 -37l41 -45l-49 -44q-22 -12 -39 -12t-28 10q-28 25 -7 67l162 169l164 -168q3 -7 5.5 -13.5t3 -13t-0.5 -12t-3.5 -11t-7 -11
t-10.5 -9.5zM658 25z" />
  </font>
</defs>
</svg>
